<svg width="22" height="22" viewBox="0 0 22 22" fill="none" xmlns="http://www.w3.org/2000/svg">
<path fill-rule="evenodd" clip-rule="evenodd" d="M16.1965 14.8127L21.702 20.232C21.9026 20.4295 21.9026 20.7488 21.702 20.9462L21.2795 21.3621C21.0789 21.5596 20.7546 21.5596 20.554 21.3621L15.0484 15.9428C14.9545 15.8462 14.8991 15.7202 14.8991 15.5857V15.1572C13.3157 16.594 11.2031 17.4762 8.87713 17.4762C3.97337 17.4762 0 13.5651 0 8.73809C0 3.91114 3.97337 0 8.87713 0C13.7809 0 17.7543 3.91114 17.7543 8.73809C17.7543 11.0276 16.858 13.1071 15.3941 14.6657H15.8337C15.9703 14.6657 16.0983 14.7161 16.1965 14.8127ZM1.36571 8.73809C1.36571 12.8257 4.72451 16.1319 8.87713 16.1319C13.0297 16.1319 16.3885 12.8257 16.3885 8.73809C16.3885 4.65051 13.0297 1.34432 8.87713 1.34432C4.72451 1.34432 1.36571 4.65051 1.36571 8.73809Z" fill="#F8F9FA"/>
</svg>
